<?xml version="1.0" encoding="utf-8"?><!-- Uploaded to: SVG Repo, www.svgrepo.com, Generator: SVG Repo Mixer Tools -->
<svg fill="#000000" width="16px" height="16px" viewBox="0 0 24 24" id="star-2" data-name="Flat Color" xmlns="http://www.w3.org/2000/svg" class="icon flat-color"><path id="primary" d="M15,2H9A1,1,0,0,0,8,3V7a1,1,0,0,0,.45.83L11,9.54V11a1,1,0,0,0,2,0V9.54l2.55-1.71A1,1,0,0,0,16,7V3A1,1,0,0,0,15,2Z" style="fill: rgb(0, 0, 0);"></path><path id="secondary" d="M16,4H8A1,1,0,0,1,8,2h8a1,1,0,0,1,0,2Zm2.58,10.52a1,1,0,0,0-.82-.69l-3.38-.46-1.5-2.84a1,1,0,0,0-1.76,0l-1.5,2.84-3.38.46a1,1,0,0,0-.82.69,1,1,0,0,0,.28,1l2.4,2.19-.56,3.07A1,1,0,0,0,9,21.9l3-1.49,3,1.49a1,1,0,0,0,.44.1,1,1,0,0,0,.6-.2,1,1,0,0,0,.38-1l-.56-3.07,2.4-2.19A1,1,0,0,0,18.58,14.52Z" style="fill: rgb(44, 169, 188);"></path></svg>